<svg xmlns="http://www.w3.org/2000/svg" viewBox="0 0 256 256" role="img" aria-labelledby="title">
  <title>Quatro Ventos</title>
  <defs>
    <linearGradient id="gold" x1="0%" y1="0%" x2="100%" y2="100%">
      <stop offset="0%" stop-color="#f0d89c" />
      <stop offset="50%" stop-color="#c9a96e" />
      <stop offset="100%" stop-color="#a88a4e" />
    </linearGradient>
    <linearGradient id="navy" x1="0%" y1="0%" x2="100%" y2="100%">
      <stop offset="0%" stop-color="#162340" />
      <stop offset="100%" stop-color="#060e1a" />
    </linearGradient>
  </defs>
  <rect width="256" height="256" rx="64" fill="url(#navy)" />
  <rect x="18" y="18" width="220" height="220" rx="54" fill="none" stroke="rgba(240,216,156,0.35)" stroke-width="4" />
  <path d="M70 72c0-8.837 7.163-16 16-16h36c48.601 0 78 25.896 78 68 0 41.921-28.655 68-74 68h-20l17 22c7.314 9.466.57 23-11.393 23H94.2c-5.083 0-9.896-2.296-12.934-6.275L47.89 188.9c-5.22-6.81-.363-16.9 8.216-16.9H90V72zm36 76c27.419 0 42-9.703 42-24 0-14.55-14.637-24-42-24h-4v48h4z" fill="url(#gold)" />
  <path d="M148 58h21.674c4.87 0 9.468 2.222 12.504 6.04l31.886 40.112c5.079 6.389.528 15.848-7.63 15.848H184.76l-30.94-39.882A16 16 0 0 1 148 70.302V58z" fill="#f5f0e8" opacity=".92" />
</svg>
